<svg width="52" height="52" viewBox="0 0 52 52" fill="none" xmlns="http://www.w3.org/2000/svg">
<path d="M15.2185 0.134064H36.7815C44.996 0.134064 51.6703 6.80834 51.6703 15.0228V36.5859C51.6703 40.5346 50.1017 44.3216 47.3095 47.1138C44.5173 49.906 40.7303 51.4746 36.7815 51.4746H15.2185C7.00399 51.4746 0.329712 44.8004 0.329712 36.5859V15.0228C0.329712 11.0741 1.89835 7.28707 4.69053 4.49488C7.48272 1.7027 11.2697 0.134064 15.2185 0.134064ZM14.7051 5.26812C12.2541 5.26812 9.90357 6.24176 8.17049 7.97484C6.4374 9.70792 5.46377 12.0585 5.46377 14.5094V37.0993C5.46377 42.2077 9.59669 46.3406 14.7051 46.3406H37.2949C39.7459 46.3406 42.0964 45.367 43.8295 43.6339C45.5626 41.9008 46.5362 39.5502 46.5362 37.0993V14.5094C46.5362 9.40104 42.4033 5.26812 37.2949 5.26812H14.7051ZM39.4769 9.11867C40.3279 9.11867 41.1441 9.45673 41.7459 10.0585C42.3476 10.6603 42.6857 11.4764 42.6857 12.3275C42.6857 13.1785 42.3476 13.9946 41.7459 14.5964C41.1441 15.1982 40.3279 15.5362 39.4769 15.5362C38.6259 15.5362 37.8097 15.1982 37.2079 14.5964C36.6062 13.9946 36.2681 13.1785 36.2681 12.3275C36.2681 11.4764 36.6062 10.6603 37.2079 10.0585C37.8097 9.45673 38.6259 9.11867 39.4769 9.11867ZM26 12.9692C29.4041 12.9692 32.6688 14.3215 35.0758 16.7285C37.4829 19.1356 38.8351 22.4003 38.8351 25.8044C38.8351 29.2084 37.4829 32.4731 35.0758 34.8802C32.6688 37.2872 29.4041 38.6395 26 38.6395C22.5959 38.6395 19.3312 37.2872 16.9242 34.8802C14.5171 32.4731 13.1649 29.2084 13.1649 25.8044C13.1649 22.4003 14.5171 19.1356 16.9242 16.7285C19.3312 14.3215 22.5959 12.9692 26 12.9692ZM26 18.1033C23.9575 18.1033 21.9987 18.9146 20.5545 20.3589C19.1103 21.8031 18.2989 23.7619 18.2989 25.8044C18.2989 27.8468 19.1103 29.8056 20.5545 31.2498C21.9987 32.6941 23.9575 33.5054 26 33.5054C28.0425 33.5054 30.0013 32.6941 31.4455 31.2498C32.8897 29.8056 33.7011 27.8468 33.7011 25.8044C33.7011 23.7619 32.8897 21.8031 31.4455 20.3589C30.0013 18.9146 28.0425 18.1033 26 18.1033Z" fill="white"/>
</svg>
