<svg width="41" height="47" viewBox="0 0 41 47" fill="none" xmlns="http://www.w3.org/2000/svg">
<path d="M32.004 7.9401C30.2492 5.93685 29.2822 3.3642 29.2829 0.70108H21.3508V32.5322C21.2897 34.2548 20.5624 35.8864 19.3223 37.0834C18.0821 38.2805 16.4259 38.9496 14.7022 38.9498C11.057 38.9498 8.02795 35.9721 8.02795 32.2755C8.02795 27.8602 12.2892 24.5488 16.6788 25.9093V17.7975C7.82259 16.6167 0.0701599 23.4963 0.0701599 32.2755C0.0701599 40.8237 7.15516 46.9076 14.6766 46.9076C22.737 46.9076 29.2829 40.3617 29.2829 32.2755V16.1289C32.4994 18.4389 36.3612 19.6782 40.3212 19.6714V11.7393C40.3212 11.7393 35.4952 11.9703 32.004 7.9401Z" fill="white"/>
</svg>
